<?xml version="1.0" encoding="UTF-8" standalone="no"?><!DOCTYPE svg PUBLIC "-//W3C//DTD SVG 1.1//EN" "http://www.w3.org/Graphics/SVG/1.1/DTD/svg11.dtd"><!-- Generated by graphviz version 2.40.1 (20161225.0304)
 --><!-- Title: G Pages: 1 --><svg xmlns="http://www.w3.org/2000/svg" xmlns:xlink="http://www.w3.org/1999/xlink" width="862pt" height="665pt" viewBox="0.00 0.00 862.16 665.00">
<g id="graph0" class="graph" transform="scale(1 1) rotate(0) translate(4 661)">
<title>G</title>
<polygon fill="#ffffff" stroke="transparent" points="-4,4 -4,-661 858.1606,-661 858.1606,4 -4,4"/>
<g id="clust1" class="cluster">
<title>cluster_domaine</title>
<polygon fill="#d3d3d3" stroke="#d3d3d3" points="8,-151.6 8,-649 385,-649 385,-151.6 8,-151.6"/>
</g>
<g id="clust2" class="cluster">
<title>cluster_machine</title>
<polygon fill="#d3d3d3" stroke="#d3d3d3" points="393,-8 393,-649 814,-649 814,-8 393,-8"/>
</g>
<!-- D_LIBRE -->
<g id="node1" class="node">
<title>D_LIBRE</title>
<polygon fill="#ffffff" stroke="#ffffff" points="148.547,-530 75.453,-530 75.453,-494 148.547,-494 148.547,-530"/>
<text text-anchor="middle" x="112" y="-507.8" font-family="Times,serif" font-size="14.00" fill="#000000">D_LIBRE</text>
</g>
<!-- D_RISQUE -->
<g id="node2" class="node">
<title>D_RISQUE</title>
<polygon fill="#ffffff" stroke="#ffffff" points="232.6529,-362.8 149.3471,-362.8 149.3471,-326.8 232.6529,-326.8 232.6529,-362.8"/>
<text text-anchor="middle" x="191" y="-340.6" font-family="Times,serif" font-size="14.00" fill="#000000">D_RISQUE</text>
</g>
<!-- D_LIBRE&#45;&gt;D_RISQUE -->
<g id="edge1" class="edge">
<title>D_LIBRE-&gt;D_RISQUE</title>
<path fill="none" stroke="#000000" d="M111.9822,-493.8903C112.5929,-475.3989 115.325,-446.2454 125.6142,-423.4 134.5321,-403.5993 149.8599,-384.7726 163.4341,-370.5113"/>
<polygon fill="#000000" stroke="#000000" points="166.2257,-372.6644 170.7431,-363.0808 161.2353,-367.7556 166.2257,-372.6644"/>
<text text-anchor="middle" x="194.1929" y="-444.4" font-family="Times,serif" font-size="14.00" fill="#000000">Une machine commence</text>
<text text-anchor="middle" x="194.1929" y="-427.6" font-family="Times,serif" font-size="14.00" fill="#000000">à parler</text>
</g>
<!-- D_OCCUPE -->
<g id="node3" class="node">
<title>D_OCCUPE</title>
<polygon fill="#ffffff" stroke="#ffffff" points="109.3288,-195.6 20.6712,-195.6 20.6712,-159.6 109.3288,-159.6 109.3288,-195.6"/>
<text text-anchor="middle" x="65" y="-173.4" font-family="Times,serif" font-size="14.00" fill="#000000">D_OCCUPE</text>
</g>
<!-- D_RISQUE&#45;&gt;D_OCCUPE -->
<g id="edge4" class="edge">
<title>D_RISQUE-&gt;D_OCCUPE</title>
<path fill="none" stroke="#000000" d="M167.8293,-326.6756C144.5114,-308.0818 110.6339,-279.9861 100.812,-266.2 87.7142,-247.8158 78.4232,-223.9473 72.5921,-205.6166"/>
<polygon fill="#000000" stroke="#000000" points="75.8724,-204.3718 69.6313,-195.8103 69.1712,-206.3951 75.8724,-204.3718"/>
<text text-anchor="middle" x="148.594" y="-253.6" font-family="Times,serif" font-size="14.00" fill="#000000">Une machine fini</text>
<text text-anchor="middle" x="148.594" y="-236.8" font-family="Times,serif" font-size="14.00" fill="#000000">de s'initialiser</text>
</g>
<!-- D_COLLISION -->
<g id="node4" class="node">
<title>D_COLLISION</title>
<polygon fill="#ffffff" stroke="#ffffff" points="312.472,-195.6 205.528,-195.6 205.528,-159.6 312.472,-159.6 312.472,-195.6"/>
<text text-anchor="middle" x="259" y="-173.4" font-family="Times,serif" font-size="14.00" fill="#000000">D_COLLISION</text>
</g>
<!-- D_RISQUE&#45;&gt;D_COLLISION -->
<g id="edge3" class="edge">
<title>D_RISQUE-&gt;D_COLLISION</title>
<path fill="none" stroke="#000000" d="M192.2163,-326.4775C194.3186,-303.5466 199.9311,-263.5299 214.6142,-232.6 219.4791,-222.352 226.6192,-212.3326 233.7566,-203.7133"/>
<polygon fill="#000000" stroke="#000000" points="236.6123,-205.7628 240.5246,-195.9167 231.3261,-201.174 236.6123,-205.7628"/>
<text text-anchor="middle" x="283.1929" y="-253.6" font-family="Times,serif" font-size="14.00" fill="#000000">Une machine commence</text>
<text text-anchor="middle" x="283.1929" y="-236.8" font-family="Times,serif" font-size="14.00" fill="#000000">à parler</text>
</g>
<!-- D_OCCUPE&#45;&gt;D_LIBRE -->
<g id="edge2" class="edge">
<title>D_OCCUPE-&gt;D_LIBRE</title>
<path fill="none" stroke="#000000" d="M58.8048,-195.7894C47.2471,-232.4422 25.1046,-317.5553 42.812,-386.4 52.3117,-423.334 75.2165,-461.0397 92.0819,-485.3686"/>
<polygon fill="#000000" stroke="#000000" points="89.3486,-487.5651 97.9862,-493.7005 95.06,-483.5177 89.3486,-487.5651"/>
<text text-anchor="middle" x="90.594" y="-349" font-family="Times,serif" font-size="14.00" fill="#000000">Une machine fini</text>
<text text-anchor="middle" x="90.594" y="-332.2" font-family="Times,serif" font-size="14.00" fill="#000000">de parler</text>
</g>
<!-- D_COLLISION&#45;&gt;D_LIBRE -->
<g id="edge5" class="edge">
<title>D_COLLISION-&gt;D_LIBRE</title>
<path fill="none" stroke="#000000" d="M310.6971,-195.7076C327.1928,-204.2179 343.5937,-216.1981 353,-232.6 360.4291,-245.5542 360.7834,-253.4555 353,-266.2 334.232,-296.9307 301.3457,-273.5433 280.9228,-303.2 241.9198,-359.8376 306.5205,-402.9532 264,-457 250.603,-474.0286 198.066,-490.525 158.4802,-500.9358"/>
<polygon fill="#000000" stroke="#000000" points="157.5376,-497.5643 148.7267,-503.4481 159.2837,-504.343 157.5376,-497.5643"/>
<text text-anchor="middle" x="334.0386" y="-349" font-family="Times,serif" font-size="14.00" fill="#000000">Toute les machines</text>
<text text-anchor="middle" x="334.0386" y="-332.2" font-family="Times,serif" font-size="14.00" fill="#000000">ont fini de parler</text>
</g>
<!-- D_init -->
<g id="node5" class="node">
<title>D_init</title>
<ellipse fill="#ffffff" stroke="#ffffff" cx="112" cy="-623" rx="18" ry="18"/>
<text text-anchor="middle" x="112" y="-618.8" font-family="Times,serif" font-size="14.00" fill="#000000"> </text>
</g>
<!-- D_init&#45;&gt;D_LIBRE -->
<g id="edge6" class="edge">
<title>D_init-&gt;D_LIBRE</title>
<path fill="none" stroke="#000000" d="M112,-604.6706C112,-587.2373 112,-560.7482 112,-540.5489"/>
<polygon fill="#000000" stroke="#000000" points="115.5001,-540.3566 112,-530.3566 108.5001,-540.3567 115.5001,-540.3566"/>
</g>
<!-- M_init -->
<g id="node6" class="node">
<title>M_init</title>
<ellipse fill="#ffffff" stroke="#ffffff" cx="601" cy="-623" rx="18" ry="18"/>
<text text-anchor="middle" x="601" y="-618.8" font-family="Times,serif" font-size="14.00" fill="#000000"> </text>
</g>
<!-- M_INACTIF -->
<g id="node7" class="node">
<title>M_INACTIF</title>
<polygon fill="#ffffff" stroke="#ffffff" points="646.1515,-530 555.8485,-530 555.8485,-494 646.1515,-494 646.1515,-530"/>
<text text-anchor="middle" x="601" y="-507.8" font-family="Times,serif" font-size="14.00" fill="#000000">M_INACTIF</text>
</g>
<!-- M_init&#45;&gt;M_INACTIF -->
<g id="edge7" class="edge">
<title>M_init-&gt;M_INACTIF</title>
<path fill="none" stroke="#000000" d="M601,-604.6706C601,-587.2373 601,-560.7482 601,-540.5489"/>
<polygon fill="#000000" stroke="#000000" points="604.5001,-540.3566 601,-530.3566 597.5001,-540.3567 604.5001,-540.3566"/>
</g>
<!-- M_CHOIX -->
<g id="node8" class="node">
<title>M_CHOIX</title>
<polygon fill="#ffffff" stroke="#ffffff" points="546,-386.5002 435.5336,-344.8 546,-303.0998 656.4664,-344.8 546,-386.5002"/>
<text text-anchor="middle" x="546" y="-349" font-family="Times,serif" font-size="14.00" fill="#000000">Le domaine est</text>
<text text-anchor="middle" x="546" y="-332.2" font-family="Times,serif" font-size="14.00" fill="#000000">visiblement libre</text>
</g>
<!-- M_INACTIF&#45;&gt;M_CHOIX -->
<g id="edge8" class="edge">
<title>M_INACTIF-&gt;M_CHOIX</title>
<path fill="none" stroke="#000000" d="M560.8651,-493.7706C546.2399,-484.9092 531.3066,-472.7215 523.1654,-457 512.3451,-436.105 516.4132,-410.5446 523.9147,-389.1006"/>
<polygon fill="#000000" stroke="#000000" points="527.2569,-390.1597 527.5618,-379.5692 520.7192,-387.658 527.2569,-390.1597"/>
<text text-anchor="middle" x="605.4173" y="-436" font-family="Times,serif" font-size="14.00" fill="#000000">On veux envoyer un message</text>
</g>
<!-- M_INIT -->
<g id="node9" class="node">
<title>M_INIT</title>
<polygon fill="#ffffff" stroke="#ffffff" points="777.9264,-195.6 714.0736,-195.6 714.0736,-159.6 777.9264,-159.6 777.9264,-195.6"/>
<text text-anchor="middle" x="746" y="-173.4" font-family="Times,serif" font-size="14.00" fill="#000000">M_INIT</text>
</g>
<!-- M_CHOIX&#45;&gt;M_INIT -->
<g id="edge9" class="edge">
<title>M_CHOIX-&gt;M_INIT</title>
<path fill="none" stroke="#000000" d="M574.4016,-313.6447C582.6851,-304.5064 591.7312,-294.4764 600,-285.2 620.6895,-261.9893 621.8928,-252.0817 646.1262,-232.6 664.0244,-218.2113 686.212,-205.5683 705.1253,-196.0439"/>
<polygon fill="#000000" stroke="#000000" points="706.684,-199.1778 714.1139,-191.6249 703.5956,-192.896 706.684,-199.1778"/>
<text text-anchor="middle" x="658.4369" y="-245.2" font-family="Times,serif" font-size="14.00" fill="#000000">OUI</text>
</g>
<!-- M_ATTENTE_O -->
<g id="node10" class="node">
<title>M_ATTENTE_O</title>
<polygon fill="#ffffff" stroke="#ffffff" points="516.5284,-195.6 401.4716,-195.6 401.4716,-159.6 516.5284,-159.6 516.5284,-195.6"/>
<text text-anchor="middle" x="459" y="-173.4" font-family="Times,serif" font-size="14.00" fill="#000000">M_ATTENTE_O</text>
</g>
<!-- M_CHOIX&#45;&gt;M_ATTENTE_O -->
<g id="edge10" class="edge">
<title>M_CHOIX-&gt;M_ATTENTE_O</title>
<path fill="none" stroke="#000000" d="M539.8021,-305.1985C535.0808,-282.7803 527.092,-254.862 514,-232.6 507.529,-221.5964 498.3374,-211.2198 489.3169,-202.5074"/>
<polygon fill="#000000" stroke="#000000" points="491.5637,-199.8181 481.8434,-195.6032 486.8137,-204.9599 491.5637,-199.8181"/>
<text text-anchor="middle" x="543.1599" y="-245.2" font-family="Times,serif" font-size="14.00" fill="#000000">NON</text>
</g>
<!-- M_TRANSMITION -->
<g id="node11" class="node">
<title>M_TRANSMITION</title>
<polygon fill="#ffffff" stroke="#ffffff" points="786.8613,-52 655.1387,-52 655.1387,-16 786.8613,-16 786.8613,-52"/>
<text text-anchor="middle" x="721" y="-29.8" font-family="Times,serif" font-size="14.00" fill="#000000">M_TRANSMITION</text>
</g>
<!-- M_INIT&#45;&gt;M_TRANSMITION -->
<g id="edge11" class="edge">
<title>M_INIT-&gt;M_TRANSMITION</title>
<path fill="none" stroke="#000000" d="M732.9672,-159.2335C726.4933,-148.9792 719.3572,-135.6668 716.028,-122.6 711.0195,-102.9424 712.4786,-80.0673 715.077,-62.4849"/>
<polygon fill="#000000" stroke="#000000" points="718.5833,-62.7401 716.7946,-52.2973 711.6807,-61.5763 718.5833,-62.7401"/>
<text text-anchor="middle" x="757.986" y="-110" font-family="Times,serif" font-size="14.00" fill="#000000">Apres le temps</text>
<text text-anchor="middle" x="757.986" y="-93.2" font-family="Times,serif" font-size="14.00" fill="#000000">d'initialisation</text>
</g>
<!-- M_ATTENTE_C -->
<g id="node12" class="node">
<title>M_ATTENTE_C</title>
<polygon fill="#ffffff" stroke="#ffffff" points="591.2577,-52 476.7423,-52 476.7423,-16 591.2577,-16 591.2577,-52"/>
<text text-anchor="middle" x="534" y="-29.8" font-family="Times,serif" font-size="14.00" fill="#000000">M_ATTENTE_C</text>
</g>
<!-- M_INIT&#45;&gt;M_ATTENTE_C -->
<g id="edge14" class="edge">
<title>M_INIT-&gt;M_ATTENTE_C</title>
<path fill="none" stroke="#000000" d="M716.3458,-159.4416C711.0157,-156.5842 705.4271,-153.8395 700,-151.6 655.0505,-133.0518 634.0818,-150.8516 594.5048,-122.6 572.7476,-107.0688 556.3694,-81.1062 546.177,-61.2891"/>
<polygon fill="#000000" stroke="#000000" points="549.2261,-59.5578 541.674,-52.127 542.9439,-62.6455 549.2261,-59.5578"/>
<text text-anchor="middle" x="650.7476" y="-110" font-family="Times,serif" font-size="14.00" fill="#000000">Une autre machine</text>
<text text-anchor="middle" x="650.7476" y="-93.2" font-family="Times,serif" font-size="14.00" fill="#000000">commence de parler</text>
</g>
<!-- M_ATTENTE_O&#45;&gt;M_CHOIX -->
<g id="edge13" class="edge">
<title>M_ATTENTE_O-&gt;M_CHOIX</title>
<path fill="none" stroke="#000000" d="M440.95,-195.6955C425.0558,-213.9229 406.3201,-242.643 419.4214,-266.2 432.688,-290.0543 456.5234,-307.5977 479.9609,-319.98"/>
<polygon fill="#000000" stroke="#000000" points="478.3947,-323.11 488.9012,-324.4753 481.5393,-316.8561 478.3947,-323.11"/>
<text text-anchor="middle" x="464.2893" y="-245.2" font-family="Times,serif" font-size="14.00" fill="#000000">Temps d'attente</text>
</g>
<!-- M_TRANSMITION&#45;&gt;M_INACTIF -->
<g id="edge12" class="edge">
<title>M_TRANSMITION-&gt;M_INACTIF</title>
<path fill="none" stroke="#000000" d="M761.7205,-52.0987C776.5626,-60.9411 791.7218,-73.1499 800,-89 806.9133,-102.2367 801.3142,-107.7246 800,-122.6 797.0999,-155.427 802.6312,-166.5881 787,-195.6 759.6964,-246.276 693,-227.1366 693,-284.7 693,-440.2 693,-440.2 693,-440.2 693,-463.0554 675.1361,-479.7099 655.1517,-491.1905"/>
<polygon fill="#000000" stroke="#000000" points="653.3805,-488.1682 646.1914,-495.9507 656.6647,-494.35 653.3805,-488.1682"/>
<text text-anchor="middle" x="797.5803" y="-245.2" font-family="Times,serif" font-size="14.00" fill="#000000">Communication fini</text>
</g>
<!-- M_ATTENTE_C&#45;&gt;M_CHOIX -->
<g id="edge15" class="edge">
<title>M_ATTENTE_C-&gt;M_CHOIX</title>
<path fill="none" stroke="#000000" d="M537.4479,-52.254C543.841,-87.1338 557.3097,-165.7355 562,-232.6 563.045,-247.4967 563.4969,-251.3419 562,-266.2 561.0158,-275.9692 559.36,-286.3195 557.4772,-296.1897"/>
<polygon fill="#000000" stroke="#000000" points="553.993,-295.7633 555.4517,-306.2572 560.8554,-297.1441 553.993,-295.7633"/>
<text text-anchor="middle" x="629.617" y="-173.4" font-family="Times,serif" font-size="14.00" fill="#000000">Temps d'attente aléatoire</text>
</g>
</g>
</svg>