<?xml version="1.0" encoding="UTF-8" standalone="no"?><!DOCTYPE svg PUBLIC "-//W3C//DTD SVG 1.1//EN" "http://www.w3.org/Graphics/SVG/1.1/DTD/svg11.dtd"><!-- Generated by graphviz version 2.40.1 (20161225.0304)
 --><!-- Title: G Pages: 1 --><svg xmlns="http://www.w3.org/2000/svg" xmlns:xlink="http://www.w3.org/1999/xlink" width="592pt" height="188pt" viewBox="0.00 0.00 591.82 188.00">
<g id="graph0" class="graph" transform="scale(1 1) rotate(0) translate(4 184)">
<title>G</title>
<polygon fill="#ffffff" stroke="transparent" points="-4,4 -4,-184 587.8161,-184 587.8161,4 -4,4"/>
<!-- D_LIBRE -->
<g id="node1" class="node">
<title>D_LIBRE</title>
<ellipse fill="none" stroke="#000000" cx="134.9272" cy="-162" rx="50.9619" ry="18"/>
<text text-anchor="middle" x="134.9272" y="-157.8" font-family="Times,serif" font-size="14.00" fill="#000000">D_LIBRE</text>
</g>
<!-- D_RISQUE -->
<g id="node2" class="node">
<title>D_RISQUE</title>
<ellipse fill="none" stroke="#000000" cx="134.9272" cy="-90" rx="57.9042" ry="18"/>
<text text-anchor="middle" x="134.9272" y="-85.8" font-family="Times,serif" font-size="14.00" fill="#000000">D_RISQUE</text>
</g>
<!-- D_LIBRE&#45;&gt;D_RISQUE -->
<g id="edge1" class="edge">
<title>D_LIBRE-&gt;D_RISQUE</title>
<path fill="none" stroke="#000000" d="M134.9272,-143.8314C134.9272,-136.131 134.9272,-126.9743 134.9272,-118.4166"/>
<polygon fill="#000000" stroke="#000000" points="138.4273,-118.4132 134.9272,-108.4133 131.4273,-118.4133 138.4273,-118.4132"/>
</g>
<!-- D_OCCUPE -->
<g id="node3" class="node">
<title>D_OCCUPE</title>
<ellipse fill="none" stroke="#000000" cx="60.9272" cy="-18" rx="60.8544" ry="18"/>
<text text-anchor="middle" x="60.9272" y="-13.8" font-family="Times,serif" font-size="14.00" fill="#000000">D_OCCUPE</text>
</g>
<!-- D_RISQUE&#45;&gt;D_OCCUPE -->
<g id="edge2" class="edge">
<title>D_RISQUE-&gt;D_OCCUPE</title>
<path fill="none" stroke="#000000" d="M117.0138,-72.5708C107.7425,-63.55 96.2693,-52.387 86.1202,-42.5121"/>
<polygon fill="#000000" stroke="#000000" points="88.2836,-39.7337 78.6756,-35.2687 83.4021,-44.7508 88.2836,-39.7337"/>
</g>
<!-- D_COLISION -->
<g id="node4" class="node">
<title>D_COLISION</title>
<ellipse fill="none" stroke="#000000" cx="213.9272" cy="-18" rx="67.776" ry="18"/>
<text text-anchor="middle" x="213.9272" y="-13.8" font-family="Times,serif" font-size="14.00" fill="#000000">D_COLISION</text>
</g>
<!-- D_RISQUE&#45;&gt;D_COLISION -->
<g id="edge4" class="edge">
<title>D_RISQUE-&gt;D_COLISION</title>
<path fill="none" stroke="#000000" d="M153.6491,-72.937C163.6358,-63.8352 176.0998,-52.4756 187.098,-42.4519"/>
<polygon fill="#000000" stroke="#000000" points="189.7576,-44.7636 194.7909,-35.4407 185.0423,-39.5899 189.7576,-44.7636"/>
</g>
<!-- D_OCCUPE&#45;&gt;D_LIBRE -->
<g id="edge3" class="edge">
<title>D_OCCUPE-&gt;D_LIBRE</title>
<path fill="none" stroke="#000000" d="M58.312,-36.0554C56.4358,-55.0932 56.017,-85.4007 67.9272,-108 74.8772,-121.1876 86.5882,-132.2987 98.2928,-140.9485"/>
<polygon fill="#000000" stroke="#000000" points="96.5333,-143.9875 106.7463,-146.8064 100.5203,-138.2339 96.5333,-143.9875"/>
</g>
<!-- D_COLISION&#45;&gt;D_LIBRE -->
<g id="edge5" class="edge">
<title>D_COLISION-&gt;D_LIBRE</title>
<path fill="none" stroke="#000000" d="M215.315,-36.1371C215.9461,-55.243 214.5262,-85.6069 201.9272,-108 194.5586,-121.0966 182.637,-132.2381 170.8777,-140.939"/>
<polygon fill="#000000" stroke="#000000" points="168.6163,-138.2487 162.4112,-146.8364 172.6173,-143.9927 168.6163,-138.2487"/>
</g>
<!-- M_INACTIF -->
<g id="node5" class="node">
<title>M_INACTIF</title>
<ellipse fill="none" stroke="#000000" cx="439.9272" cy="-162" rx="62.5585" ry="18"/>
<text text-anchor="middle" x="439.9272" y="-157.8" font-family="Times,serif" font-size="14.00" fill="#000000">M_INACTIF</text>
</g>
<!-- M_DEBUT -->
<g id="node6" class="node">
<title>M_DEBUT</title>
<ellipse fill="none" stroke="#000000" cx="498.9272" cy="-90" rx="56.7619" ry="18"/>
<text text-anchor="middle" x="498.9272" y="-85.8" font-family="Times,serif" font-size="14.00" fill="#000000">M_DEBUT</text>
</g>
<!-- M_INACTIF&#45;&gt;M_DEBUT -->
<g id="edge6" class="edge">
<title>M_INACTIF-&gt;M_DEBUT</title>
<path fill="none" stroke="#000000" d="M454.5115,-144.2022C461.5848,-135.5704 470.2106,-125.0439 477.9726,-115.5717"/>
<polygon fill="#000000" stroke="#000000" points="480.8796,-117.5462 484.5107,-107.593 475.4652,-113.1094 480.8796,-117.5462"/>
</g>
<!-- M_EMITION -->
<g id="node7" class="node">
<title>M_EMITION</title>
<ellipse fill="none" stroke="#000000" cx="364.9272" cy="-18" rx="65.4091" ry="18"/>
<text text-anchor="middle" x="364.9272" y="-13.8" font-family="Times,serif" font-size="14.00" fill="#000000">M_EMITION</text>
</g>
<!-- M_DEBUT&#45;&gt;M_EMITION -->
<g id="edge7" class="edge">
<title>M_DEBUT-&gt;M_EMITION</title>
<path fill="none" stroke="#000000" d="M469.8512,-74.3771C450.5404,-64.0011 424.9626,-50.2578 403.8956,-38.9383"/>
<polygon fill="#000000" stroke="#000000" points="405.3398,-35.7411 394.8743,-34.091 402.0266,-41.9073 405.3398,-35.7411"/>
</g>
<!-- M_ATTENTE -->
<g id="node8" class="node">
<title>M_ATTENTE</title>
<ellipse fill="none" stroke="#000000" cx="515.9272" cy="-18" rx="67.7779" ry="18"/>
<text text-anchor="middle" x="515.9272" y="-13.8" font-family="Times,serif" font-size="14.00" fill="#000000">M_ATTENTE</text>
</g>
<!-- M_DEBUT&#45;&gt;M_ATTENTE -->
<g id="edge8" class="edge">
<title>M_DEBUT-&gt;M_ATTENTE</title>
<path fill="none" stroke="#000000" d="M497.2646,-71.8314C498.3607,-63.9266 500.3771,-54.4872 502.7889,-45.7365"/>
<polygon fill="#000000" stroke="#000000" points="506.2151,-46.4989 505.7704,-35.9134 499.5168,-44.4658 506.2151,-46.4989"/>
</g>
<!-- M_EMITION&#45;&gt;M_INACTIF -->
<g id="edge10" class="edge">
<title>M_EMITION-&gt;M_INACTIF</title>
<path fill="none" stroke="#000000" d="M374.3921,-36.1727C387.368,-61.0863 410.7812,-106.0398 425.8259,-134.9255"/>
<polygon fill="#000000" stroke="#000000" points="422.8564,-136.8011 430.58,-144.0535 429.0648,-133.5675 422.8564,-136.8011"/>
</g>
<!-- M_ATTENTE&#45;&gt;M_DEBUT -->
<g id="edge9" class="edge">
<title>M_ATTENTE-&gt;M_DEBUT</title>
<path fill="none" stroke="#000000" d="M517.6002,-36.0931C516.4918,-44.1203 514.4302,-53.7412 511.9671,-62.6191"/>
<polygon fill="#000000" stroke="#000000" points="508.6139,-61.6162 509.0452,-72.2022 515.3096,-63.6578 508.6139,-61.6162"/>
</g>
</g>
</svg>